<?xml version="1.0" encoding="utf-8" ?><svg xmlns="http://www.w3.org/2000/svg" xmlns:xlink="http://www.w3.org/1999/xlink" width="505" height="505" viewBox="0 0 505 505"><defs><linearGradient id="gradient_0" gradientUnits="userSpaceOnUse" x1="69.571571" y1="300.41599" x2="350.49124" y2="191.29662"><stop offset="0" stop-color="#293043"/><stop offset="1" stop-color="#6F8DAC"/></linearGradient></defs><path fill="url(#gradient_0)" transform="matrix(0.986328 0 0 0.986328 -0.00012207 -3.05176e-05)" d="M75.8714 167.745L25.1545 167.764C13.8451 168.251 13.0538 155.093 20.2182 152.989C23.9681 151.888 29.6824 152.47 33.622 152.489L69.9482 152.501C89.5948 152.525 87.5703 154.712 93.3025 173.099C94.4877 176.9 95.4866 180.406 96.737 184.098L175.818 184.098L216.234 184.09C222.597 184.09 230.302 183.877 236.543 184.098C239.924 193.947 245.104 197.098 254.774 200.088C241.673 200.262 228.29 200.073 215.146 200.08L202.388 200.111C200.887 200.119 197.027 200.237 195.671 200.088C183.807 200.287 171.45 200.084 159.532 200.084L101.488 200.088L107.842 221.53C108.823 224.837 110.197 228.742 110.982 232.008L260.155 232.008L322.792 232.008C324.508 226.616 326.006 221.254 327.688 215.908C339.003 210.009 344.328 204.921 344.773 191.066C356.123 192.842 349.83 199.731 346.659 210.217L314.179 321.049C308.279 341.273 313.199 344.597 294.02 344.326C270.973 344.378 247.212 343.993 224.241 344.326L224.241 359.748L299.733 359.748C307.127 359.73 314.59 359.413 322.008 360.163C331.106 361.082 330.067 374.617 322.854 375.569C318.411 376.156 310.796 375.83 306.05 375.764L132.852 375.764C126.106 375.767 119.28 375.966 112.518 375.728C102.565 375.377 101.96 361.121 111.653 359.748C113.864 359.434 117.77 359.744 120.153 359.745L207.75 359.748L207.75 344.326L159.423 344.33C151.405 344.331 129.913 347.498 127.003 338.922C124.075 330.292 121.723 321.478 119.06 312.769L85.1445 199.67C82.1931 189.958 78.1775 177.504 75.8714 167.745ZM125.077 279.831L278 279.831L309.045 279.831C312.475 269.736 315.359 258.157 318.674 247.697L261.626 247.697L115.888 247.697C118.716 258.266 122.539 269.424 125.077 279.831ZM140.061 327.977L271.573 327.971C276.115 327.969 283.046 327.736 287.432 327.977L295.334 327.977C298.292 317.46 301.605 306.729 304.67 296.193L274.096 296.193L144.545 296.185C141.32 296.181 133.028 295.912 130.187 296.193C132.869 306.467 136.949 317.641 140.061 327.977Z"/><path fill="#4B5B6F" transform="matrix(0.986328 0 0 0.986328 -0.00012207 -3.05176e-05)" d="M299.733 359.748C307.127 359.73 314.59 359.413 322.008 360.163C331.106 361.082 330.067 374.617 322.854 375.569C318.411 376.156 310.796 375.83 306.05 375.764L306.154 375.438C305.627 375.105 295.644 375.043 293.877 374.845L293.862 374.385L294.937 373.662C294.566 372.013 291.502 360.848 290.353 360.411C292.471 359.925 297.664 361.058 299.733 359.748Z"/><path fill="#4B5B6F" transform="matrix(0.986328 0 0 0.986328 -0.00012207 -3.05176e-05)" d="M175.818 184.098L216.234 184.09C222.597 184.09 230.302 183.877 236.543 184.098C239.924 193.947 245.104 197.098 254.774 200.088C241.673 200.262 228.29 200.073 215.146 200.08L202.388 200.111C200.887 200.119 197.027 200.237 195.671 200.088C198.973 199.498 217.136 200.784 219.13 199.658C217.759 199.585 216.456 199.421 215.095 199.264L214.981 199.005C218.294 197.551 215.009 196.599 215.009 195.226C215.01 192.191 214.295 189.266 214.272 186.259C214.255 184.112 212.189 185.013 215.181 184.415C206.655 183.155 185.08 183.873 176.244 184.319L175.818 184.098Z"/><path fill="#4B5B6F" transform="matrix(0.986328 0 0 0.986328 -0.00012207 -3.05176e-05)" d="M286.167 90.2631C275.202 83.3978 278.431 69.2472 290.161 66.5425C293.704 65.7255 303.117 70.2549 306.766 71.7226L347.041 87.936C353.513 90.5989 360.805 92.254 361.92 100.548C363.124 109.499 356.399 114.956 347.941 114.732C345.749 121.863 342.447 129.49 339.939 136.59L330.449 161.566C328.54 166.808 326.193 173.466 324.019 178.515C334.418 184.174 332.204 208.481 306.709 198.363C290.073 191.76 273.128 185.717 256.436 179.249C243.051 174.063 246.224 154.138 261.626 155.223C262.059 153.179 265.242 145.385 266.198 142.687C244.986 133.624 256.371 96.9748 280.304 105.383C281.972 100.838 284.107 94.5478 286.167 90.2631Z"/><path fill="#333945" transform="matrix(0.986328 0 0 0.986328 -0.00012207 -3.05176e-05)" d="M324.019 178.515C334.418 184.174 332.204 208.481 306.709 198.363C290.073 191.76 273.128 185.717 256.436 179.249C243.051 174.063 246.224 154.138 261.626 155.223C269.543 157.583 279.219 161.364 286.961 164.291L313.899 174.258C316.931 175.378 321.525 177.728 324.019 178.515Z"/><path fill="#D98B5A" transform="matrix(0.986328 0 0 0.986328 -0.00012207 -3.05176e-05)" d="M266.198 142.687C244.986 133.624 256.371 96.9748 280.304 105.383C276.399 117.409 270.458 130.541 266.198 142.687Z"/><path fill="#D98B5A" transform="matrix(0.986328 0 0 0.986328 -0.00012207 -3.05176e-05)" d="M339.939 136.59C343.681 137.406 349.854 140.211 353.796 141.417C369.849 146.326 385.569 152.413 401.419 157.848L451.23 174.801C463.065 178.713 474.93 182.617 486.624 187.082C504.792 194.018 494.654 221.197 476.133 216.32C472.197 215.283 467.564 213.165 463.595 211.723L432.717 200.438C409.215 191.952 385.452 183.102 362.149 174.103L341.084 165.947C337.696 164.607 333.645 163.16 330.449 161.566L339.939 136.59Z"/><defs><linearGradient id="gradient_1" gradientUnits="userSpaceOnUse" x1="137.28183" y1="438.18155" x2="151.40086" y2="393.18961"><stop offset="0" stop-color="#262A37"/><stop offset="1" stop-color="#56565C"/></linearGradient></defs><path fill="url(#gradient_1)" transform="matrix(0.986328 0 0 0.986328 -0.00012207 -3.05176e-05)" d="M143.064 391.798C156.265 391.082 167.56 401.172 168.334 414.37C169.107 427.567 159.066 438.907 145.872 439.738C132.596 440.575 121.17 430.458 120.392 417.179C119.614 403.899 129.781 392.517 143.064 391.798Z"/><defs><linearGradient id="gradient_2" gradientUnits="userSpaceOnUse" x1="274.11591" y1="433.98318" x2="303.18967" y2="398.3121"><stop offset="0" stop-color="#272934"/><stop offset="1" stop-color="#4C4D53"/></linearGradient></defs><path fill="url(#gradient_2)" transform="matrix(0.986328 0 0 0.986328 -0.00012207 -3.05176e-05)" d="M285.855 392.818C298.689 391.217 310.414 400.26 312.128 413.079C313.841 425.898 304.903 437.702 292.099 439.529C279.135 441.379 267.15 432.303 265.414 419.323C263.679 406.343 272.86 394.438 285.855 392.818Z"/></svg>